# Blender 5.0.1
# www.blender.org
mtllib wallsFixed.mtl
o Walls
v -4.854277 0.547976 6.438004
v -4.854277 3.712425 -3.424279
v -4.854277 0.547976 -3.424279
v 5.476213 0.547976 -3.424279
v 5.476213 0.547976 4.137448
v -2.642432 0.547976 6.438004
v -2.647035 0.547976 4.136311
v 5.476213 3.712425 4.137448
v 5.476213 3.712425 -3.424279
v -4.854277 3.712425 4.130380
v -2.647035 3.712425 4.136311
v -4.234896 2.666513 6.438004
v -3.373330 2.666514 6.438004
v -3.369158 1.227095 6.438004
v -4.236981 1.225009 6.438004
v 0.278140 2.666620 4.136720
v 0.284148 1.224698 4.136721
v -1.563315 1.224698 4.136462
v -1.563315 2.663616 4.136462
v 1.457713 2.666369 4.136886
v 2.701873 2.666369 4.137060
v 2.701873 1.229453 4.137060
v 1.455209 1.229453 4.136885
v 3.329098 2.665638 4.137147
v 4.580768 2.665638 4.137323
v 4.577291 1.226218 4.137322
v 3.330837 1.224480 4.137148
v 5.476213 2.662539 1.027945
v 5.476213 2.662538 -0.226228
v 5.476213 1.223118 -0.223725
v 5.476213 1.223118 1.030448
v 3.964741 2.660036 -3.424279
v 3.158665 2.665042 -3.424279
v 3.161169 1.606130 -3.424279
v 3.964741 1.603626 -3.424279
v 1.000787 0.547976 -3.424279
v 0.199718 0.547976 -3.424279
v 0.998283 2.287038 -3.424279
v 0.199718 2.289541 -3.424279
v -1.384896 2.660038 -3.424279
v -1.384896 1.606132 -3.424279
v -2.183462 1.606132 -3.424279
v -2.185965 2.662541 -3.424279
v -2.645523 0.547976 4.892405
v -2.643929 0.547976 5.689068
v -2.643929 2.297103 5.689068
v -2.645523 2.286288 4.892405
v -2.642432 3.113914 6.438004
v -2.642988 3.186306 6.159602
v -3.059383 3.115770 6.438004
v -4.504754 3.122206 6.438004
v -2.643082 3.098098 6.112925
v -4.015478 3.120027 6.438004
v -4.854277 3.123762 6.438004
vn 1.0000 -0.0000 -0.0020
vn -0.0000 -0.0000 1.0000
vn -0.0000 -0.0000 -1.0000
vn -0.0001 -0.0000 1.0000
vn 1.0000 -0.0000 -0.0000
vn -1.0000 -0.0000 -0.0000
vt 0.862013 1.353902
vt 0.676277 1.356423
vt 0.500000 1.023931
vt 1.207025 1.267777
vt 1.133831 1.163036
vt 1.356736 1.162044
vt -0.643214 0.174055
vt -0.730175 0.729673
vt -0.731342 -0.329621
vt 0.743821 -0.187957
vt 0.743879 0.087050
vt 0.500000 -0.869938
vt 1.975531 0.893016
vt 1.482538 0.147417
vt 1.818127 0.146834
vt 0.500000 1.429372
vt -0.237765 -0.869938
vt 0.500000 -0.869938
vt 1.206052 1.603365
vt 1.552295 1.761696
vt 1.036622 1.761696
vt 1.079993 -0.186556
vt 1.237765 -0.869938
vt 1.237765 1.023931
vt 0.500000 1.023931
vt 0.744050 0.523349
vt 0.744050 0.815165
vt 1.079638 0.814354
vt 1.080044 0.523754
vt 1.975531 -0.869938
vt 1.818127 -0.145566
vt 1.482538 -0.144983
vt -0.730175 -0.517551
vt -0.975531 -0.869938
vt -0.483882 -0.517551
vt -0.484466 0.915852
vt -0.484466 0.729673
vt -0.237766 0.360234
vt 1.036622 1.761696
vt 0.862013 1.761696
vt 0.676277 1.761696
vt 0.500000 1.761696
vt 1.552295 1.161173
vt 1.407892 1.267777
vt 1.470807 1.161536
vt 1.408378 1.603852
vt 1.036622 1.163469
vt -0.237765 -0.869938
vt -0.484465 -0.330205
vt -0.237766 0.173471
vt -0.730759 0.916436
vt -0.975531 1.538531
vt -0.643797 0.360234
vt 0.744521 -0.617278
vt 1.079993 -0.617278
vt 0.743879 0.377116
vt 1.078885 0.086467
vt 1.237766 0.893016
vt -0.237765 0.891369
vt 1.078885 0.377116
vt 1.237766 -0.869938
vt -0.237766 1.538531
vt 1.036622 1.163469
vt 0.960832 1.167156
vt 0.971714 1.146591
vt -0.100523 1.429372
s 0
usemtl Walls
f 46/1/1 47/2/1 11/3/1
f 13/4/2 50/5/2 53/6/2
f 38/7/3 40/8/3 33/9/3
f 16/10/4 20/11/4 11/12/4
f 4/13/5 29/14/5 30/15/5
f 1/16/6 2/17/6 3/18/6
f 14/19/2 1/20/2 6/21/2
f 17/22/4 7/23/4 5/24/4
f 8/25/4 24/26/4 25/27/4
f 26/28/4 27/29/4 5/24/4
f 5/30/5 31/31/5 28/32/5
f 32/33/3 9/34/3 35/35/3
f 42/36/3 41/37/3 37/38/3
f 6/39/1 45/40/1 46/1/1
f 44/41/1 7/42/1 47/2/1
f 7/42/1 11/3/1 47/2/1
f 54/43/2 12/44/2 51/45/2
f 1/20/2 15/46/2 12/44/2
f 14/19/2 6/21/2 13/4/2
f 48/47/2 13/4/2 6/21/2
f 35/35/3 4/48/3 34/49/3
f 4/48/3 36/50/3 34/49/3
f 43/51/3 2/52/3 40/8/3
f 2/52/3 33/9/3 40/8/3
f 39/53/3 41/37/3 40/8/3
f 33/9/3 34/49/3 38/7/3
f 34/49/3 36/50/3 38/7/3
f 38/7/3 39/53/3 40/8/3
f 11/12/4 7/23/4 19/54/4
f 7/23/4 18/55/4 19/54/4
f 21/56/4 8/25/4 20/11/4
f 8/25/4 11/12/4 20/11/4
f 17/22/4 23/57/4 16/10/4
f 23/57/4 20/11/4 16/10/4
f 11/12/4 19/54/4 16/10/4
f 31/31/5 5/30/5 30/15/5
f 5/30/5 4/13/5 30/15/5
f 4/13/5 9/58/5 29/14/5
f 1/16/6 10/59/6 2/17/6
f 14/19/2 15/46/2 1/20/2
f 17/22/4 18/55/4 7/23/4
f 8/25/4 21/56/4 24/26/4
f 27/29/4 24/26/4 22/60/4
f 24/26/4 21/56/4 22/60/4
f 22/60/4 23/57/4 5/24/4
f 23/57/4 17/22/4 5/24/4
f 8/25/4 25/27/4 5/24/4
f 25/27/4 26/28/4 5/24/4
f 27/29/4 22/60/4 5/24/4
f 28/32/5 29/14/5 8/61/5
f 29/14/5 9/58/5 8/61/5
f 8/61/5 5/30/5 28/32/5
f 32/33/3 33/9/3 9/34/3
f 33/9/3 2/52/3 9/34/3
f 9/34/3 4/48/3 35/35/3
f 3/62/3 2/52/3 43/51/3
f 3/62/3 43/51/3 42/36/3
f 41/37/3 39/53/3 37/38/3
f 3/62/3 42/36/3 37/38/3
f 48/63/1 46/1/1 52/64/1
f 11/3/1 52/64/1 46/1/1
f 49/65/1 48/63/1 52/64/1
f 53/6/2 12/44/2 13/4/2
f 54/43/2 1/20/2 12/44/2
f 48/47/2 50/5/2 13/4/2
f 1/16/6 54/66/6 10/59/6
f 48/63/1 6/39/1 46/1/1
f 11/3/1 49/65/1 52/64/1
f 53/6/2 51/45/2 12/44/2
